<svg xmlns="http://www.w3.org/2000/svg"  viewBox="0 0 64 64" width="64px" height="64px"><radialGradient id="Y5LaSZeRT7OlIn~DaCHDYa" cx="30.745" cy="33.723" r="23.86" gradientTransform="matrix(1 0 0 -1 0 66)" gradientUnits="userSpaceOnUse"><stop offset="0" stop-color="#afeeff"/><stop offset=".193" stop-color="#bbf1ff"/><stop offset=".703" stop-color="#d7f8ff"/><stop offset="1" stop-color="#e1faff"/></radialGradient><path fill="url(#Y5LaSZeRT7OlIn~DaCHDYa)" d="M56.01,52.73c0.12,1.32,1.34,2.27,2.67,2.27H59c1.7,0,3.07,1.41,3,3.13	C61.93,59.77,60.45,61,58.81,61H5c-2.24,0-3.89-2.43-2.47-4.8C2.99,55.43,3.87,55,4.77,55H5.5c1.45,0,2.62-1.24,2.49-2.73	C7.87,50.95,6.65,50,5.32,50H3c-2.24,0-3.89-2.43-2.47-4.8C0.99,44.43,1.87,44,2.77,44h7.73c1.46,0,2.62-1.25,2.49-2.73	C12.87,39.95,11.65,39,10.32,39H9.5c-1.58,0-2.81-1.46-2.43-3.1C7.34,34.75,8.46,34,9.64,34H11c0.55,0,1.05-0.22,1.41-0.59	c0.32-0.31,0.53-0.73,0.58-1.2C13.12,31,12.03,30,10.81,30H6.7c-1.48,0-2.8-1.21-2.69-2.69c0.04-0.61,0.31-1.17,0.72-1.58	C5.18,25.28,5.81,25,6.5,25h3c1.93,0,2.5-1.57,2.5-3.5S10.43,18,8.5,18H3c-1.83,0-3.29-1.66-2.95-3.56C0.32,12.99,1.7,12,3.18,12H24	c0.55,0,1.05-0.22,1.41-0.59C25.78,11.05,26,10.55,26,10c0-1.1-0.9-2-2-2h-4.5C17.57,8,16,6.43,16,4.5S17.57,1,19.5,1h39	c1.6,0,2.85,1.52,2.41,3.18C60.61,5.28,59.55,6,58.41,6H53.5C52.67,6,51,6.57,51,8.57S52.67,11,53.5,11h7.31	c1.48,0,2.87,0.99,3.14,2.44C64.3,15.34,62.84,17,61,17h-3c-2.21,0-4,1.79-4,4v4h0.5c1.6,0,2.85,1.52,2.41,3.18	c-0.3,1.1-1.36,1.82-2.5,1.82H53c-1.1,0-2,0.9-2,2c0,1.1,0.9,2,2,2h1c1.7,0,3.07,1.42,3,3.14C56.92,38.77,55.44,40,53.8,40H53	c-1.1,0-2,0.9-2,2s0.9,2,2,2h8c1.7,0,3.07,1.41,3,3.13C63.93,48.77,62.45,50,60.81,50H58.5C57.05,50,55.88,51.24,56.01,52.73z"/><radialGradient id="Y5LaSZeRT7OlIn~DaCHDYb" cx="30.745" cy="33.723" r="23.86" gradientTransform="matrix(1 0 0 -1 0 66)" gradientUnits="userSpaceOnUse"><stop offset="0" stop-color="#afeeff"/><stop offset=".193" stop-color="#bbf1ff"/><stop offset=".703" stop-color="#d7f8ff"/><stop offset="1" stop-color="#e1faff"/></radialGradient><circle cx="8.5" cy="5.5" r="3.5" fill="url(#Y5LaSZeRT7OlIn~DaCHDYb)"/><ellipse cx="32" cy="39.5" fill="#fff" rx="24.5" ry="17"/><path fill="#fff" d="M7.616,37.836C5.721,36.373,4.5,34.079,4.5,31.5c0-4.418,3.582-8,8-8	c2.081,0,3.976,0.794,5.398,2.096"/><path fill="#fff" d="M46.102,25.596C47.525,24.294,49.42,23.5,51.5,23.5c4.418,0,8,3.582,8,8	c0,2.579-1.221,4.874-3.116,6.337"/><circle cx="51.5" cy="11.5" r="5" fill="#fff"/><linearGradient id="Y5LaSZeRT7OlIn~DaCHDYc" x1="32" x2="32" y1="9.383" y2="60.597" gradientTransform="matrix(1 0 0 -1 0 66)" gradientUnits="userSpaceOnUse"><stop offset="0" stop-color="#848e97"/><stop offset="1" stop-color="#8c96a1"/></linearGradient><path fill="url(#Y5LaSZeRT7OlIn~DaCHDYc)" d="M61,31.5c0-5.238-4.262-9.5-9.5-9.5c-2.045,0-4.012,0.657-5.639,1.859	c-3.454-1.555-7.453-2.546-11.746-2.793l0.596-7.739c0.1-1.305,1.204-2.327,2.513-2.327c0.88,0,1.708,0.469,2.161,1.225l0.658,1.095	c0.992,1.653,2.806,2.68,4.733,2.68h2.044c1.183,1.23,2.842,2,4.679,2c3.584,0,6.5-2.916,6.5-6.5S55.084,5,51.5,5S45,7.916,45,11.5	c0,0.517,0.067,1.018,0.182,1.5h-0.405c-0.88,0-1.708-0.469-2.161-1.225l-0.658-1.095C40.965,9.027,39.151,8,37.223,8	c-2.866,0-5.283,2.239-5.503,5.097l-0.609,7.919c-4.756,0.115-9.191,1.141-12.971,2.843C16.512,22.657,14.545,22,12.5,22	C7.262,22,3,26.262,3,31.5c0,2.675,1.104,5.161,3.044,6.956C6.017,38.802,6,39.15,6,39.5C6,49.701,17.663,58,32,58s26-8.299,26-18.5	c0-0.351-0.017-0.698-0.044-1.044C59.896,36.661,61,34.175,61,31.5z M51.5,8c1.93,0,3.5,1.57,3.5,3.5S53.43,15,51.5,15	S48,13.43,48,11.5S49.57,8,51.5,8z M6,31.5c0-3.584,2.916-6.5,6.5-6.5c0.872,0,1.719,0.186,2.507,0.516	c-3.888,2.395-6.771,5.592-8.132,9.229C6.312,33.772,6,32.664,6,31.5z M32,55C19.317,55,9,48.047,9,39.5	c0-5.145,3.742-9.71,9.484-12.531c0.026-0.011,0.051-0.024,0.077-0.037C22.345,25.09,26.986,24,32,24	c5.015,0,9.657,1.091,13.441,2.934c0.024,0.012,0.047,0.024,0.072,0.034C51.257,29.789,55,34.354,55,39.5C55,48.047,44.683,55,32,55	z M48.993,25.516C49.781,25.186,50.628,25,51.5,25c3.584,0,6.5,2.916,6.5,6.5c0,1.164-0.312,2.273-0.875,3.245	C55.765,31.108,52.881,27.911,48.993,25.516z"/><linearGradient id="Y5LaSZeRT7OlIn~DaCHDYd" x1="32.001" x2="32.001" y1="9.383" y2="60.597" gradientTransform="matrix(1 0 0 -1 0 66)" gradientUnits="userSpaceOnUse"><stop offset="0" stop-color="#848e97"/><stop offset="1" stop-color="#8c96a1"/></linearGradient><path fill="url(#Y5LaSZeRT7OlIn~DaCHDYd)" d="M39.554,45.332c-4.447,3.563-10.66,3.563-15.107,0c-0.646-0.519-1.592-0.414-2.108,0.233	c-0.518,0.646-0.413,1.591,0.233,2.108c2.775,2.223,6.103,3.334,9.429,3.334s6.653-1.111,9.429-3.334	c0.646-0.518,0.751-1.462,0.233-2.108C41.146,44.919,40.199,44.814,39.554,45.332z"/><linearGradient id="Y5LaSZeRT7OlIn~DaCHDYe" x1="23" x2="23" y1="11.553" y2="32.623" gradientTransform="matrix(1 0 0 -1 0 66)" gradientUnits="userSpaceOnUse"><stop offset="0" stop-color="#ff5840"/><stop offset=".395" stop-color="#ff5840"/><stop offset=".824" stop-color="#fa528c"/><stop offset="1" stop-color="#fa528c"/></linearGradient><circle cx="23" cy="37" r="4" fill="url(#Y5LaSZeRT7OlIn~DaCHDYe)"/><linearGradient id="Y5LaSZeRT7OlIn~DaCHDYf" x1="41" x2="41" y1="11.553" y2="32.623" gradientTransform="matrix(1 0 0 -1 0 66)" gradientUnits="userSpaceOnUse"><stop offset="0" stop-color="#ff5840"/><stop offset=".395" stop-color="#ff5840"/><stop offset=".824" stop-color="#fa528c"/><stop offset="1" stop-color="#fa528c"/></linearGradient><circle cx="41" cy="37" r="4" fill="url(#Y5LaSZeRT7OlIn~DaCHDYf)"/></svg>