<svg width="375" height="159" viewBox="0 0 375 159" fill="none" xmlns="http://www.w3.org/2000/svg">
<path d="M106.4 52.048C112.928 52.048 118.176 54.064 122.144 58.096C126.176 62.064 128.192 67.632 128.192 74.8V106H114.752V76.624C114.752 72.464 113.696 69.296 111.584 67.12C109.472 64.88 106.592 63.76 102.944 63.76C99.2955 63.76 96.3835 64.88 94.2075 67.12C92.0955 69.296 91.0395 72.464 91.0395 76.624V106H77.5995V76.624C77.5995 72.464 76.5435 69.296 74.4315 67.12C72.3195 64.88 69.4395 63.76 65.7915 63.76C62.0795 63.76 59.1355 64.88 56.9595 67.12C54.8475 69.296 53.7915 72.464 53.7915 76.624V106H40.3515V52.816H53.7915V59.248C55.5195 57.008 57.7275 55.248 60.4155 53.968C63.1675 52.688 66.1755 52.048 69.4395 52.048C73.5995 52.048 77.3115 52.944 80.5755 54.736C83.8395 56.464 86.3675 58.96 88.1595 62.224C89.8875 59.152 92.3835 56.688 95.6475 54.832C98.9755 52.976 102.56 52.048 106.4 52.048ZM193.292 52.048C199.628 52.048 204.748 54.064 208.652 58.096C212.556 62.064 214.508 67.632 214.508 74.8V106H201.068V76.624C201.068 72.4 200.012 69.168 197.9 66.928C195.788 64.624 192.908 63.472 189.26 63.472C185.548 63.472 182.604 64.624 180.428 66.928C178.316 69.168 177.26 72.4 177.26 76.624V106H163.82V52.816H177.26V59.44C179.052 57.136 181.324 55.344 184.076 54.064C186.892 52.72 189.964 52.048 193.292 52.048ZM277.497 52.816V106H263.961V99.28C262.233 101.584 259.961 103.408 257.145 104.752C254.393 106.032 251.385 106.672 248.121 106.672C243.961 106.672 240.281 105.808 237.081 104.08C233.881 102.288 231.353 99.696 229.497 96.304C227.705 92.848 226.809 88.752 226.809 84.016V52.816H240.249V82.096C240.249 86.32 241.305 89.584 243.417 91.888C245.529 94.128 248.409 95.248 252.057 95.248C255.769 95.248 258.681 94.128 260.793 91.888C262.905 89.584 263.961 86.32 263.961 82.096V52.816H277.497ZM320.134 106L309.19 89.488L299.494 106H285.094L302.47 79.312L284.902 52.816H300.07L310.918 69.232L320.71 52.816H335.11L317.638 79.312L335.302 106H320.134Z" fill="#2C373D"/>
<path d="M144.288 112.52C146.656 112.52 148.64 113.256 150.24 114.728C151.776 116.264 152.544 118.152 152.544 120.392C152.544 122.632 151.776 124.488 150.24 125.96C148.64 127.496 146.656 128.264 144.288 128.264C141.92 128.264 139.968 127.496 138.432 125.96C136.832 124.488 136.032 122.632 136.032 120.392C136.032 118.152 136.832 116.264 138.432 114.728C139.968 113.256 141.92 112.52 144.288 112.52ZM137.664 106.184L137.664 53L151.104 53L151.104 106.184L137.664 106.184Z" fill="#2C373D"/>
<rect x="53.6577" y="106" width="53.3776" height="13.439" transform="rotate(-180 53.6577 106)" fill="#2C373D"/>
<rect x="374.128" y="66.2499" width="53.3776" height="13.439" transform="rotate(-180 374.128 66.2499)" fill="#2C373D"/>
</svg>
